# Blender v3.0.1 OBJ File: ''
# www.blender.org
mtllib Door Frame.mtl
o Frame_Cube.001
v -1.000000 -0.760050 -0.760050
v -1.000000 3.760050 -0.760050
v -0.489789 -0.760050 -0.760050
v -0.489789 3.760050 -0.760050
v -1.000000 -1.000000 -1.000000
v -1.000000 4.000000 -1.000000
v -0.489789 4.000000 -1.000000
v -0.489789 -1.000000 -1.000000
v -1.000000 -1.000000 -0.760050
v -0.489789 -1.000000 -0.760050
v -0.489789 4.000000 1.424043
v -1.000000 4.000000 1.424043
v -1.000000 3.760050 1.424043
v -0.489789 3.760050 1.424043
v -1.000000 -0.760050 3.608135
v -1.000000 3.760050 3.608135
v -0.489789 -0.760050 3.608135
v -0.489789 3.760050 3.608135
v -1.000000 -1.000000 3.848085
v -1.000000 4.000000 3.848085
v -0.489789 4.000000 3.848085
v -0.489789 -1.000000 3.848085
v -1.000000 -1.000000 3.608135
v -0.489789 -1.000000 3.608135
vt 0.375000 0.250000
vt 0.625000 0.250000
vt 0.625000 0.500000
vt 0.375000 0.500000
vt 0.386998 0.237472
vt 0.375000 0.234366
vt 0.613002 0.237472
vt 0.613003 0.512528
vt 0.386998 0.512528
vt 0.613003 0.632033
vt 0.613003 0.526595
vt 0.625000 0.515634
vt 0.625000 0.632817
vt 0.386998 0.526595
vt 0.375000 0.515634
vt 0.125000 0.500000
vt 0.125000 0.515634
vt 0.613003 0.223405
vt 0.613003 0.117967
vt 0.625000 0.117183
vt 0.625000 0.234366
vt 0.875000 0.515634
vt 0.875000 0.632817
vt 0.375000 0.250000
vt 0.375000 0.500000
vt 0.625000 0.500000
vt 0.625000 0.250000
vt 0.386998 0.237472
vt 0.375000 0.234366
vt 0.613002 0.237472
vt 0.613003 0.512528
vt 0.386998 0.512528
vt 0.625000 0.515634
vt 0.613003 0.526595
vt 0.386998 0.526595
vt 0.375000 0.515634
vt 0.125000 0.500000
vt 0.125000 0.515634
vt 0.613003 0.223405
vt 0.625000 0.234366
vt 0.875000 0.515634
vn 0.0000 0.0000 -1.0000
vn -1.0000 0.0000 0.0000
vn 1.0000 0.0000 0.0000
vn 0.0000 -1.0000 0.0000
vn 0.0000 1.0000 0.0000
vn 0.0000 0.0000 1.0000
usemtl None
s off
f 5/1/1 6/2/1 7/3/1 8/4/1
f 1/5/2 5/1/2 9/6/2
f 1/5/2 2/7/2 6/2/2 5/1/2
f 4/8/3 3/9/3 8/4/3 7/3/3
f 14/10/3 4/11/3 7/12/3 11/13/3
f 3/14/3 10/15/3 8/4/3
f 5/16/4 8/4/4 10/15/4 9/17/4
f 2/18/2 13/19/2 12/20/2 6/21/2
f 7/12/5 6/22/5 12/23/5 11/13/5
f 10/15/6 3/9/6 1/5/6 9/17/6
f 3/9/6 4/8/6 2/7/6 1/5/6
f 4/11/4 14/10/4 13/19/4 2/18/4
f 19/24/6 22/25/6 21/26/6 20/27/6
f 15/28/2 23/29/2 19/24/2
f 15/28/2 19/24/2 20/27/2 16/30/2
f 18/31/3 21/26/3 22/25/3 17/32/3
f 14/10/3 11/13/3 21/33/3 18/34/3
f 17/35/3 22/25/3 24/36/3
f 19/37/4 23/38/4 24/36/4 22/25/4
f 16/39/2 20/40/2 12/20/2 13/19/2
f 21/33/5 11/13/5 12/23/5 20/41/5
f 24/36/1 23/38/1 15/28/1 17/32/1
f 17/32/1 15/28/1 16/30/1 18/31/1
f 18/34/4 16/39/4 13/19/4 14/10/4
